Coordinates
version=1
nRows=6
nColumns=63
inDegrees=yes

Units are S.I. units (second, meters, Newtons, ...)
If the header above contains a line with 'inDegrees', this indicates whether rotational values are in degrees (yes) or radians (no).

endheader
time	pelvis_tilt	pelvis_list	pelvis_rotation	pelvis_tx	pelvis_ty	pelvis_tz	hip_flexion_r	hip_adduction_r	hip_rotation_r	knee_angle_r	knee_angle_r_beta	ankle_angle_r	subtalar_angle_r	mtp_angle_r	hip_flexion_l	hip_adduction_l	hip_rotation_l	knee_angle_l	knee_angle_l_beta	ankle_angle_l	subtalar_angle_l	mtp_angle_l	L5_S1_Flex_Ext	L5_S1_Lat_Bending	L5_S1_axial_rotation	L4_L5_Flex_Ext	L4_L5_Lat_Bending	L4_L5_axial_rotation	L3_L4_Flex_Ext	L3_L4_Lat_Bending	L3_L4_axial_rotation	L2_L3_Flex_Ext	L2_L3_Lat_Bending	L2_L3_axial_rotation	L1_L2_Flex_Ext	L1_L2_Lat_Bending	L1_L2_axial_rotation	L1_T12_Flex_Ext	L1_T12_Lat_Bending	L1_T12_axial_rotation	Abs_r3	Abs_r2	Abs_r1	Abs_t1	Abs_t2	neck_flexion	neck_bending	neck_rotation	arm_flex_r	arm_add_r	arm_rot_r	elbow_flex_r	pro_sup_r	wrist_flex_r	wrist_dev_r	arm_flex_l	arm_add_l	arm_rot_l	elbow_flex_l	pro_sup_l	wrist_flex_l	wrist_dev_l
      1.86666667	     -3.34266982	     -7.49460600	     84.37047781	      0.21362795	      0.71207696	      0.69495621	      7.05131949	     -4.00987347	    -12.89248611	      7.60478696	      0.13272857	     25.80001841	     17.95619081	      0.00000000	      6.11612781	      2.85020554	      3.86978910	      5.81595232	      0.10150752	      7.76044594	    -17.51185686	      0.00000000	      0.28664062	     -0.55466050	      0.21498015	      0.53232030	     -0.73769847	      0.22841641	      0.47092187	     -1.34860154	      0.22841641	      0.32760156	     -1.34860154	      0.18810763	      0.26617448	     -1.13106369	      0.17467137	      0.16378645	     -0.85916912	      0.16123511	      2.04744528	     -6.27443051	      1.19565510	      0.00000000	      0.00000000	     12.77518207	      4.04259768	     -7.70588096	    -31.31593652	    -58.90381819	     24.63006444	    142.84715376	     88.04075141	     -6.83457447	      2.27795126	    -49.44763606	    -37.27027641	      1.50213543	    145.18360928	     78.49542834	      1.52923918	      0.93942390
      1.88333333	     -3.32701038	     -7.40006984	     84.46900573	      0.21323593	      0.71240323	      0.69380756	      6.78040340	     -4.03798448	    -13.09558954	      7.52101507	      0.13126648	     25.53574142	     17.91704342	      0.00000000	      5.86760578	      2.87526211	      3.92506763	      5.66679399	      0.09890421	      7.49372428	    -17.43262784	      0.00000000	      0.29847797	     -0.51719065	      0.17550317	      0.55430344	     -0.68786357	      0.18647211	      0.49036946	     -1.25749736	      0.18647211	      0.34113047	     -1.25749736	      0.15356527	      0.27716664	     -1.05465518	      0.14259632	      0.17055031	     -0.80112832	      0.13162737	      2.13199830	     -5.85056413	      0.97609596	      0.00000000	      0.00000000	     12.24834982	      3.45035891	     -5.79371046	    -31.29684655	    -61.60859810	     24.18622308	    143.49340952	     86.63907527	     -4.03110022	      2.63780013	    -49.24784831	    -38.41527115	      1.36903695	    145.45665775	     76.72428382	      1.75449409	      1.88357470
      1.90000000	     -3.38672305	     -7.36303238	     84.63869381	      0.21271121	      0.71306082	      0.69292347	      6.59015746	     -4.14539217	    -13.38706169	      7.43964017	      0.12984622	     25.14008144	     17.84869050	      0.00000000	      5.73499749	      2.98628721	      4.00213639	      5.54486816	      0.09677621	      7.00574994	    -17.40179114	      0.00000000	      0.31564400	     -0.47726914	      0.10762745	      0.58618248	     -0.63476795	      0.11435416	      0.51857153	     -1.16043218	      0.11435416	      0.36074953	     -1.16043218	      0.09417402	      0.29310702	     -0.97324723	      0.08744730	      0.18035898	     -0.73928990	      0.08072059	      2.25461354	     -5.39896395	      0.59859158	      0.00000000	      0.00000000	     11.70705153	      2.42022468	     -3.59678859	    -29.68425343	    -65.06063798	     25.05002804	    144.13840783	     84.54937653	      0.00164389	      3.19772164	    -48.11182754	    -40.88317323	      1.18081051	    145.72187805	     73.88530577	      3.74990710	      4.02701999
      1.91666667	     -3.30813065	     -7.29338243	     84.75310706	      0.21197034	      0.71400276	      0.69219107	      6.37908731	     -4.12037772	    -13.64015199	      7.35086202	      0.12829675	     24.67297498	     17.83411338	      0.00000000	      5.55366719	      2.96906473	      3.97743977	      5.38366263	      0.09396264	      6.50564136	    -17.37694324	      0.00000000	      0.32556094	     -0.41061173	      0.02458033	      0.60459922	     -0.54611361	      0.02611660	      0.53486406	     -0.99836137	      0.02611660	      0.37208360	     -0.99836137	      0.02150779	      0.30231589	     -0.83731945	      0.01997152	      0.18602552	     -0.63603758	      0.01843525	      2.32544922	     -4.64492207	      0.13670842	      0.00000000	      0.00000000	     11.16925024	      1.26034645	     -0.86296703	    -24.89817585	    -69.41918618	     29.64421997	    144.80814798	     82.74741177	      1.74376674	      3.27522850	    -46.15998680	    -44.02019549	      1.46759239	    145.91940991	     70.87696070	      6.12452983	      6.86219084
      1.93333333	     -2.88935583	     -7.24781555	     84.78415034	      0.21076798	      0.71503672	      0.69157775	      6.15216866	     -3.74184993	    -13.76697820	      7.16166279	      0.12499460	     24.00822397	     17.82686257	      0.00000000	      5.35977400	      2.61806843	      3.89242645	      5.19340550	      0.09064203	      6.18533910	    -17.31169849	      0.00000000	      0.32647957	     -0.29276592	      0.06873884	      0.60630521	     -0.38937868	      0.07303502	      0.53637328	     -0.71183107	      0.07303502	      0.37313350	     -0.71183107	      0.06014649	      0.30316893	     -0.59700827	      0.05585031	      0.18655043	     -0.45349442	      0.05155413	      2.33201091	     -3.31182669	      0.38230481	      0.00000000	      0.00000000	     10.75794495	     -0.44351598	      1.55041056	    -20.06239525	    -73.56380798	     34.68001414	    145.81914885	     81.90641042	      2.20776685	      3.64273175	    -42.42276023	    -47.74844464	      3.64579794	    145.79003117	     68.49937110	      7.51804009	      9.22856578
      1.95000000	     -3.05711343	     -7.09192631	     85.08898713	      0.21074148	      0.71629822	      0.69170426	      5.95827919	     -3.94074773	    -14.19382372	      7.15277471	      0.12483947	     23.77376487	     17.84690085	      0.00000000	      5.19151256	      2.81725821	      4.00222633	      5.05331744	      0.08819703	      5.51526130	    -17.31504318	      0.00000000	      0.32444637	     -0.27958281	     -0.23597386	      0.60252935	     -0.37184513	     -0.25072223	      0.53303293	     -0.67977764	     -0.25072223	      0.37080975	     -0.67977764	     -0.20647713	      0.30128090	     -0.57012526	     -0.19172876	      0.18538865	     -0.43307377	     -0.17698040	      2.31748795	     -3.16269663	     -1.31241583	      0.00000000	      0.00000000	     10.15502340	     -0.79072469	      4.69381351	      3.33938906	    -76.65829661	     58.07890585	    146.03543202	     78.72686391	     -0.02735864	      3.99549335	    -41.83753155	    -49.80377520	      2.56702571	    145.97961988	     68.22645403	     10.44749797	     11.10733781
